<svg width="38" height="9" viewBox="0 0 38 9" fill="none" xmlns="http://www.w3.org/2000/svg">
<path fill-rule="evenodd" clip-rule="evenodd" d="M34.562 1.92302C34.562 2.70058 35.2167 3.33091 36.0243 3.33091C36.8318 3.33091 37.4865 2.70058 37.4865 1.92302C37.4865 1.14547 36.8318 0.515137 36.0243 0.515137C35.2167 0.515137 34.562 1.14547 34.562 1.92302ZM37.2606 1.92352C37.2606 2.58145 36.7067 3.11481 36.0234 3.11481C35.34 3.11481 34.7861 2.58145 34.7861 1.92352C34.7861 1.26559 35.34 0.73223 36.0234 0.73223C36.7067 0.73223 37.2606 1.26559 37.2606 1.92352Z" fill="#363636"/>
<path fill-rule="evenodd" clip-rule="evenodd" d="M35.8632 1.43906V1.91339H36.0495C36.1349 1.91339 36.1997 1.89186 36.2437 1.84879C36.2878 1.80573 36.3098 1.74821 36.3098 1.67622C36.3098 1.51811 36.2197 1.43906 36.0394 1.43906H35.8632ZM36.3579 2.57302L36.0415 2.07941H35.8633V2.57302H35.657V1.27344H36.0335C36.1883 1.27344 36.3078 1.30975 36.3919 1.38238C36.4761 1.45501 36.5181 1.55366 36.5181 1.67835C36.5168 1.76962 36.4927 1.84707 36.446 1.9107C36.3993 1.97433 36.3345 2.02028 36.2518 2.04856L36.6042 2.57302H36.3579Z" fill="#363636"/>
<mask id="mask0_20_2385" style="mask-type:alpha" maskUnits="userSpaceOnUse" x="0" y="1" width="5" height="8">
<path fill-rule="evenodd" clip-rule="evenodd" d="M0.0686035 1.39014H4.03341V8.41791H0.0686035V1.39014Z" fill="white"/>
</mask>
<g mask="url(#mask0_20_2385)">
<path fill-rule="evenodd" clip-rule="evenodd" d="M2.47977 8.41791C2.21535 8.41791 1.98229 8.38076 1.78059 8.30634C1.57876 8.23192 1.40909 8.12642 1.27156 7.98971C1.13403 7.85313 1.02958 7.68787 0.95806 7.49405C0.886672 7.30023 0.850979 7.08405 0.850979 6.84525V4.0633H0.37948C0.293658 4.0633 0.220433 4.03639 0.159675 3.98281C0.0990482 3.92924 0.0686035 3.85053 0.0686035 3.74667V3.11859L0.952679 2.95257L1.27957 1.6393C1.32248 1.47327 1.44386 1.39014 1.64385 1.39014H2.51192V2.96293H3.86198V4.0633H2.51192V6.73633C2.51192 6.86091 2.54315 6.96376 2.60561 7.04513C2.66821 7.12637 2.75836 7.16706 2.8762 7.16706C2.93696 7.16706 2.98788 7.16099 3.02895 7.14899C3.07003 7.13673 3.10572 7.12296 3.13603 7.10742C3.16635 7.09175 3.19509 7.07798 3.22172 7.06585C3.24863 7.05372 3.27986 7.04766 3.31555 7.04766C3.36555 7.04766 3.40584 7.0589 3.43615 7.08139C3.46646 7.10388 3.49769 7.13939 3.52985 7.1879L4.03349 7.9508C3.8192 8.10659 3.57814 8.22321 3.31017 8.30116C3.04234 8.37899 2.76558 8.41791 2.47977 8.41791Z" fill="#363636"/>
</g>
<path fill-rule="evenodd" clip-rule="evenodd" d="M4.81592 8.33513V0.565186H6.47686V3.42509C6.67685 3.25894 6.89377 3.12489 7.12787 3.0228C7.36185 2.92071 7.64123 2.86966 7.96628 2.86966C8.26994 2.86966 8.53883 2.92071 8.77267 3.0228C9.00665 3.12489 9.20402 3.26665 9.36477 3.44846C9.52552 3.63003 9.64691 3.84634 9.72905 4.09714C9.8112 4.34807 9.85228 4.62048 9.85228 4.91474V8.33513H8.19134V4.91474C8.19134 4.65168 8.12887 4.44662 8.00381 4.29968C7.87889 4.15248 7.69477 4.07895 7.452 4.07895C7.26986 4.07895 7.09848 4.1171 6.9376 4.19329C6.77684 4.26935 6.62331 4.37132 6.47686 4.49943V8.33513H4.81592Z" fill="#363636"/>
<path fill-rule="evenodd" clip-rule="evenodd" d="M12.8575 1.83876C12.8039 1.95121 12.7307 2.04989 12.6378 2.13467C12.545 2.21945 12.4369 2.28692 12.3137 2.33708C12.1904 2.38724 12.0592 2.41238 11.9199 2.41238C11.7842 2.41238 11.6573 2.38724 11.5396 2.33708C11.4216 2.28692 11.3171 2.21945 11.2261 2.13467C11.135 2.04989 11.0636 1.95121 11.0118 1.83876C10.9599 1.72631 10.9341 1.60602 10.9341 1.47803C10.9341 1.3465 10.9599 1.22369 11.0118 1.1096C11.0636 0.995378 11.135 0.895057 11.2261 0.808509C11.3171 0.722086 11.4216 0.654489 11.5396 0.606098C11.6573 0.55758 11.7842 0.533447 11.9199 0.533447C12.0592 0.533447 12.1904 0.55758 12.3137 0.606098C12.4369 0.654489 12.545 0.722086 12.6378 0.808509C12.7307 0.895057 12.8039 0.995378 12.8575 1.1096C12.911 1.22369 12.9379 1.3465 12.9379 1.47803C12.9379 1.60602 12.911 1.72631 12.8575 1.83876ZM11.0836 8.3349H12.7445V2.95244H11.0836V8.3349Z" fill="#363636"/>
<path fill-rule="evenodd" clip-rule="evenodd" d="M14.0842 8.3351V2.95264H15.1129C15.2165 2.95264 15.3032 2.97513 15.3727 3.02024C15.4424 3.06509 15.4915 3.13256 15.5201 3.22265L15.6112 3.51325C15.7041 3.41988 15.8005 3.33421 15.9005 3.25638C16.0005 3.17843 16.1087 3.11096 16.2248 3.05397C16.3408 2.99674 16.4657 2.95176 16.5997 2.9189C16.7337 2.88605 16.8811 2.86963 17.0418 2.86963C17.3775 2.86963 17.6552 2.95352 17.875 3.12132C18.0947 3.28911 18.2616 3.51325 18.3759 3.79349C18.4688 3.62734 18.5822 3.48558 18.7161 3.36795C18.85 3.25032 18.9947 3.15505 19.1501 3.0824C19.3055 3.00988 19.4699 2.95605 19.643 2.92156C19.8164 2.88694 19.9887 2.86963 20.16 2.86963C20.478 2.86963 20.7601 2.91549 21.0066 3.00722C21.253 3.09883 21.4593 3.232 21.6254 3.40686C21.7916 3.58148 21.9174 3.79614 22.0031 4.05036C22.0889 4.30483 22.1317 4.59277 22.1317 4.91458V8.3351H20.4708V4.91458C20.4708 4.35751 20.2245 4.07904 19.7314 4.07904C19.5064 4.07904 19.3198 4.15081 19.1715 4.29446C19.0233 4.438 18.9492 4.6447 18.9492 4.91458V8.3351H17.2883V4.91458C17.2883 4.60667 17.2257 4.39036 17.1007 4.26578C16.9757 4.14133 16.7917 4.07904 16.5488 4.07904C16.3988 4.07904 16.2568 4.11189 16.123 4.17759C15.989 4.24329 15.863 4.33161 15.7452 4.44229V8.3351H14.0842Z" fill="#363636"/>
<mask id="mask1_20_2385" style="mask-type:alpha" maskUnits="userSpaceOnUse" x="23" y="0" width="6" height="9">
<path fill-rule="evenodd" clip-rule="evenodd" d="M23.3096 0.564941H28.6139V8.41786H23.3096V0.564941Z" fill="white"/>
</mask>
<g mask="url(#mask1_20_2385)">
<path fill-rule="evenodd" clip-rule="evenodd" d="M28.4402 6.72017C28.3241 7.0627 28.1617 7.36025 27.9527 7.61282C27.7437 7.86539 27.4937 8.06275 27.2025 8.20464C26.9115 8.3464 26.5892 8.41741 26.2355 8.41741C26.0712 8.41741 25.9238 8.40187 25.7935 8.37066C25.6631 8.33958 25.5434 8.29548 25.4345 8.23837C25.3256 8.18114 25.2254 8.11291 25.1344 8.03331C25.0434 7.95371 24.955 7.86716 24.8693 7.77379L24.8102 8.04367C24.7853 8.15448 24.7398 8.23054 24.6736 8.27211C24.6076 8.31355 24.521 8.33427 24.4138 8.33427H23.3101V0.564453H24.971V3.52291C25.1782 3.32568 25.4131 3.16736 25.6756 3.04809C25.9381 2.92857 26.2463 2.86893 26.5998 2.86893C26.8891 2.86893 27.1571 2.92945 27.4036 3.05062C27.65 3.17166 27.8626 3.34905 28.0411 3.58255C28.2197 3.81617 28.3599 4.10247 28.4618 4.44159C28.5635 4.78071 28.6144 5.16646 28.6144 5.59895C28.6144 6.0039 28.5562 6.37764 28.4402 6.72017ZM26.8358 4.88342C26.793 4.6896 26.7332 4.53305 26.6564 4.41365C26.5796 4.29425 26.4877 4.20859 26.3804 4.15679C26.2734 4.10486 26.1537 4.07883 26.0215 4.07883C25.9002 4.07883 25.7902 4.0902 25.692 4.11257C25.5939 4.13506 25.5027 4.16715 25.4188 4.20859C25.3348 4.25016 25.2571 4.30297 25.1858 4.36691C25.1142 4.43096 25.0427 4.5045 24.9713 4.58751V6.87126C25.0964 7.0062 25.2321 7.10046 25.3785 7.15416C25.525 7.20773 25.6786 7.23464 25.8394 7.23464C25.9929 7.23464 26.134 7.2052 26.2626 7.14633C26.3912 7.08757 26.5029 6.99319 26.5975 6.86343C26.6921 6.7338 26.7663 6.56512 26.8198 6.3574C26.8735 6.14981 26.9002 5.89724 26.9002 5.59956C26.9002 5.31591 26.8788 5.07711 26.8358 4.88342Z" fill="#363636"/>
</g>
<mask id="mask2_20_2385" style="mask-type:alpha" maskUnits="userSpaceOnUse" x="0" y="0" width="35" height="9">
<path fill-rule="evenodd" clip-rule="evenodd" d="M0.0683594 8.41786H34.1874V0.533691H0.0683594V8.41786Z" fill="white"/>
</mask>
<g mask="url(#mask2_20_2385)">
<path fill-rule="evenodd" clip-rule="evenodd" d="M29.5801 8.33513H31.241V0.565186H29.5801V8.33513Z" fill="#363636"/>
<path fill-rule="evenodd" clip-rule="evenodd" d="M32.301 7.51968C32.301 7.3951 32.3252 7.27924 32.3733 7.17197C32.4215 7.0647 32.4876 6.97133 32.5716 6.8916C32.6556 6.812 32.7547 6.74895 32.869 6.7022C32.9833 6.65545 33.1083 6.63208 33.244 6.63208C33.3762 6.63208 33.4994 6.65545 33.6137 6.7022C33.728 6.74895 33.8281 6.812 33.9138 6.8916C33.9995 6.97133 34.0664 7.0647 34.1147 7.17197C34.1629 7.27924 34.187 7.3951 34.187 7.51968C34.187 7.64426 34.1629 7.76101 34.1147 7.87005C34.0664 7.97908 33.9995 8.07334 33.9138 8.15294C33.8281 8.23254 33.728 8.2947 33.6137 8.33981C33.4994 8.38479 33.3762 8.40715 33.244 8.40715C33.1083 8.40715 32.9833 8.38479 32.869 8.33981C32.7547 8.2947 32.6556 8.23254 32.5716 8.15294C32.4876 8.07334 32.4215 7.97908 32.3733 7.87005C32.3252 7.76101 32.301 7.64426 32.301 7.51968Z" fill="#59BAA5"/>
</g>
</svg>
